<?xml version="1.0" encoding="utf-8"?>
<!-- Generator: Adobe Illustrator 19.2.0, SVG Export Plug-In . SVG Version: 6.00 Build 0)  -->
<svg version="1.1"
	 id="Calque_1" xmlns:cc="http://creativecommons.org/ns#" xmlns:dc="http://purl.org/dc/elements/1.1/" xmlns:inkscape="http://www.inkscape.org/namespaces/inkscape" xmlns:rdf="http://www.w3.org/1999/02/22-rdf-syntax-ns#" xmlns:sodipodi="http://sodipodi.sourceforge.net/DTD/sodipodi-0.dtd" xmlns:svg="http://www.w3.org/2000/svg"
	 xmlns="http://www.w3.org/2000/svg" xmlns:xlink="http://www.w3.org/1999/xlink" x="0px" y="0px" viewBox="0 0 100 125"
	 style="enable-background:new 0 0 100 125;" xml:space="preserve">
<g transform="translate(0,-952.36218)">
	<path d="M68.8,962.1c-6.4-0.4-12.8,1.8-17.7,6.7c-6.1,6.1-7.9,14.8-5.7,22.6l-32.5,32.5c-4.3,4.3-4.3,11.3,0,15.6
		c4.3,4.3,11.2,4.3,15.5,0l32.5-32.5c7.8,2.3,16.5,0.5,22.6-5.7c6.5-6.5,8.2-15.9,5.4-24c-0.4-1-1.5-1.6-2.6-1.2
		c-0.3,0.1-0.5,0.3-0.7,0.5l-11.9,11.9l-7.7-2.2l-2.2-7.7l11.8-11.8c0.8-0.8,0.8-2.1,0-2.8c-0.2-0.2-0.5-0.4-0.7-0.5
		C73,962.7,70.9,962.2,68.8,962.1L68.8,962.1z M68.5,966.1c0.6,0,1.2,0.3,1.8,0.4l-10.1,10.1c-0.5,0.5-0.7,1.3-0.5,2l2.8,9.9
		c0.2,0.7,0.7,1.2,1.4,1.4l9.9,2.8c0.7,0.2,1.5,0,2-0.5L85.9,982c1,5.8-0.6,11.9-5.1,16.4c-5.4,5.4-13.1,6.8-19.8,4.4
		c-0.7-0.3-1.5-0.1-2.1,0.5l-33.3,33.3c-2.8,2.8-7.1,2.8-9.9,0s-2.8-7.1,0-9.9L49,993.4c0.5-0.5,0.7-1.3,0.5-2.1
		c-2.4-6.7-0.9-14.4,4.4-19.8C57.9,967.5,63.3,965.7,68.5,966.1L68.5,966.1z"/>
</g>
</svg>
