<?xml version="1.0" encoding="iso-8859-1"?>
<!-- Generator: Adobe Illustrator 16.0.0, SVG Export Plug-In . SVG Version: 6.00 Build 0)  -->
<!DOCTYPE svg PUBLIC "-//W3C//DTD SVG 1.1//EN" "http://www.w3.org/Graphics/SVG/1.1/DTD/svg11.dtd">
<svg version="1.1" id="Capa_1" xmlns="http://www.w3.org/2000/svg" xmlns:xlink="http://www.w3.org/1999/xlink" x="0px" y="0px"
	 width="437.563px" height="437.563px" viewBox="0 0 437.563 437.563" style="enable-background:new 0 0 437.563 437.563;"
	 xml:space="preserve">
<g>
	<g id="Layer_3_3_">
		<g>
			<path d="M384.625,141.998c-24.821-9.607-31.024-15.395-31.024-15.395c-4.446,1.654-5.285,5.195-5.069,7.058l19.639,80.069
				c-3.685-0.009-7.594,0.989-11.128,2.846c-4.648,2.444-8.294,6.148-10.262,10.438c-2.023,4.407-2.062,8.876-0.124,12.554
				c2.482,5.92,10.854,8.791,19.468,6.68c1.917-0.471,3.76-1.168,5.489-2.086c7.806-4.108,12.569-11.797,11.675-18.797l0.101-0.022
				l-18.842-77.741c4.362-0.622,18.554-0.855,37.026,16.789l3.391,3.242l-1.104-4.562
				C403.723,162.492,400.296,148.91,384.625,141.998z"/>
			<path d="M436.021,113.648l1.542,1.474l-0.503-2.073c-0.063-0.263-1.619-6.434-8.739-9.574
				c-11.278-4.366-14.097-6.995-14.097-6.995c-2.021,0.751-2.401,2.36-2.306,3.205l8.924,36.383
				c-1.675-0.003-3.448,0.45-5.056,1.294c-2.113,1.11-3.77,2.793-4.662,4.742c-0.92,2.003-0.937,4.034-0.057,5.704
				c1.128,2.691,4.931,3.994,8.845,3.036c0.871-0.214,1.709-0.531,2.495-0.948c3.547-1.867,5.712-5.361,5.305-8.542l0.045-0.01
				l-8.562-35.324C421.181,105.738,427.628,105.632,436.021,113.648z"/>
			<path d="M387.307,93.622c0.869-0.213,1.707-0.531,2.492-0.948c3.548-1.867,5.711-5.36,5.306-8.541l0.045-0.01L386.589,48.8
				c1.982-0.284,8.432-0.389,16.823,7.628l1.541,1.473l-0.503-2.072c-0.061-0.263-1.617-6.434-8.738-9.576
				c-11.277-4.363-14.097-6.994-14.097-6.994c-2.021,0.751-2.401,2.361-2.305,3.208l8.924,36.381
				c-1.675-0.004-3.45,0.449-5.056,1.293c-2.112,1.109-3.77,2.793-4.662,4.743c-0.92,2.002-0.938,4.033-0.058,5.705
				C379.588,93.278,383.393,94.582,387.307,93.622z"/>
			<path d="M355.85,278.19c-0.747-0.645-181.132-127.052-181.132-127.052c-3.804-5.754-9.508-12.151-16.528-18.193
				c-12.849-11.057-26.212-17.566-33.5-16.915l-59.023-41.25l0.147-0.172l-0.687-0.205l-21.188-6.318L0,119.121l9.501,20.234
				l0.201,0.429l0.105-0.123l50.937,50.681c0.442,7.305,8.872,19.547,21.721,30.604c7.021,6.041,14.199,10.729,20.456,13.629
				c0,0,151.894,159.518,152.641,160.162c13.254,11.404,46.445-5.441,74.141-37.623C357.396,324.928,369.104,289.594,355.85,278.19z
				 M78.963,166.092l-0.018,0.021l-29.419-25.317l24.5-28.471l29.418,25.317l-0.016,0.02l9.911,33.271L78.963,166.092z
				 M165.033,232.302l-19.408-16.699l16.699-19.408l19.408,16.7L165.033,232.302z M229.737,287.981l-19.406-16.701l16.699-19.406
				l19.407,16.699L229.737,287.981z M339.398,309.131c-4.734,11.554-12.978,24.465-23.207,36.354
				c-10.23,11.89-21.77,21.965-32.487,28.369c-7.63,4.559-12.949,6.115-15.782,6.518c-0.024-2.861,0.723-8.354,4.094-16.578
				c4.733-11.553,12.977-24.465,23.207-36.354c10.23-11.892,21.77-21.963,32.486-28.369c7.63-4.559,12.948-6.119,15.782-6.521
				C343.516,295.413,342.768,300.905,339.398,309.131z"/>
		</g>
	</g>
</g>
<g>
</g>
<g>
</g>
<g>
</g>
<g>
</g>
<g>
</g>
<g>
</g>
<g>
</g>
<g>
</g>
<g>
</g>
<g>
</g>
<g>
</g>
<g>
</g>
<g>
</g>
<g>
</g>
<g>
</g>
</svg>
