<?xml version="1.0" encoding="utf-8"?>
<!-- Generator: Adobe Illustrator 20.0.0, SVG Export Plug-In . SVG Version: 6.00 Build 0)  -->
<svg version="1.1"
	 id="Calque_1" xmlns:cc="http://creativecommons.org/ns#" xmlns:dc="http://purl.org/dc/elements/1.1/" xmlns:inkscape="http://www.inkscape.org/namespaces/inkscape" xmlns:rdf="http://www.w3.org/1999/02/22-rdf-syntax-ns#" xmlns:sodipodi="http://sodipodi.sourceforge.net/DTD/sodipodi-0.dtd" xmlns:svg="http://www.w3.org/2000/svg"
	 xmlns="http://www.w3.org/2000/svg" xmlns:xlink="http://www.w3.org/1999/xlink" x="0px" y="0px" viewBox="0 0 100 125"
	 style="enable-background:new 0 0 100 125;" xml:space="preserve">
<g transform="translate(0,-952.36218)">
	<path d="M34.5,958.3c0.2,0,0.3,0,0.5,0c1.3,0.1,2.4,0.5,3.2,1c0.4,0.2,0.8,0.4,1,0.7c0.1,0.1,0.3,0.2,0.4,0.4
		c0.1,0.2,0.3,0.2,0.5,0.9c0,0.1,0.1,0.2,0.1,0.3c0.6,7.3,1.8,11.9,3.3,15.2s3.3,5,5.5,6.8c3.5,2.7,8.2,5.1,12.8,11v-2
		c0-1.1,0.9-2,2-2c0,0,0,0,0,0h28.1c1.1,0,2,0.9,2,2l0.1,48.2c0,1.1-0.9,2-2,2h0H63.8c-1.1,0-2-0.9-2-2l0,0v-1.6
		c-0.4,0.1-0.6,0.2-1,0.3c-1.9,0.5-4.5,1.2-7.6,2c-6,1.5-13.7,3.3-20.8,4.3c-0.7,0.1-1.4,0.2-2.1,0.2c-0.4,0.1-0.8,0.1-1.2,0.1
		c-5.9,0.6-11.1,0.6-15-1.2c-2.3-1.1-4.1-3.1-4.3-5.7c-0.2-2.1,0.4-4.3,1.7-6.8c-1.4-0.7-2.5-1.5-3.2-2.6c-1.2-1.6-1.5-3.5-1.4-5.3
		c0.2-2.5,1.3-4.9,2.9-6.7c-2.1-2-3.1-4.9-3.3-7.7c-0.1-1.9,0.1-3.8,1-5.5c0.2-0.5,0.6-0.9,0.9-1.3c-0.3-0.3-0.5-0.6-0.7-0.8
		c-1.1-1.4-1.7-3.1-1.7-4.9c-0.1-1.8,0.4-3.6,1.7-5.1c1.2-1.5,3.2-2.5,5.6-2.7c2.5-0.3,5.7-0.4,8.9-0.4c0.8,0,1.6,0,2.5,0
		c0.5-4.6-0.4-8.3-1.1-12.1c-0.7-4.2-1.1-8.7,1.7-13.6c0.1-0.1,0.1-0.2,0.2-0.3C28.6,959.6,31.9,958.3,34.5,958.3L34.5,958.3z
		 M34.7,962.3c-1.4-0.1-3.3,0.3-6,3.4c-2.2,3.9-1.9,6.9-1.2,10.8c0.6,3.5,1.6,7.7,1.2,12.8c3.1,0.1,6,0.2,8,0.1c0.1,0,0.3,0,0.4,0
		c2.4,0.4,4.4,1.4,5.6,2.9c1.3,1.5,1.7,3.4,1.5,5.2c-0.3,2.5-1.9,4.8-4.4,6.2c1.7,2.1,2.4,4.9,2,7.6c-0.3,2.1-1.3,4.2-3.1,5.7
		c-0.5,0.4-1,0.7-1.6,1.1c1.1,1.2,1.9,2.6,2.4,4.2c0.5,2,0.3,4.4-1.1,6.4c-0.7,0.9-1.6,1.7-2.8,2.4c0.2,0.2,0.3,0.4,0.5,0.6
		c1.2,1.6,1.6,3.7,1.5,5.7c-0.1,1.1-0.3,2.2-0.8,3.3c5.4-1,10.9-2.2,15.5-3.4c3-0.8,5.6-1.5,7.5-2c0.8-0.2,1.5-0.4,2.1-0.5v-33.2
		c-5.2-9.2-10.3-11.3-15.2-15.1c-2.5-1.9-4.9-4.4-6.7-8.2c-1.7-3.7-3-8.6-3.6-15.7C35.9,962.6,35.3,962.4,34.7,962.3L34.7,962.3z
		 M25.1,993.3c-4.3,0-8.5,0-11.4,0.4c0,0-0.1,0-0.1,0c-1.6,0.1-2.3,0.6-2.8,1.2s-0.8,1.5-0.8,2.4c0,0.9,0.4,1.9,0.9,2.6
		c0.5,0.6,0.9,1,1.5,1.1c0,0,0,0,0.1,0c0.1,0,0.2,0,0.3,0c0,0,0.1,0,0.1,0c3.5,0.8,8.7,0.9,13.2,0.8c2.2-0.1,4.3-0.2,5.8-0.3
		c1.6-0.1,2.4-0.3,3.3-0.2c0,0,0.1,0,0.1,0c3.1-0.6,4.6-2.5,4.8-4.1c0.1-0.8-0.1-1.5-0.6-2.2c-0.5-0.6-1.5-1.2-3.1-1.5
		C33.6,993.5,29.3,993.4,25.1,993.3L25.1,993.3z M89.9,994.5H65.8v6.6c0,0.1,0,0.3,0,0.4c0,0.1,0,0.1,0,0.2v34.6c0,0.2,0,0.4,0,0.6
		v1.8H90L89.9,994.5L89.9,994.5z M12.5,1005.1c-0.6,0.2-1,0.6-1.4,1.3c-0.4,0.8-0.7,2.1-0.6,3.4c0.2,2.5,1.5,5,3.2,5.8l17.6,0.2
		c2.4,0,3.9-0.6,4.9-1.4c1-0.8,1.5-2,1.7-3.2c0.3-2.4-0.9-5-2.7-5.7c0.1,0-1.2,0.1-2.8,0.2c-1.6,0.1-3.7,0.3-6,0.3
		C21.9,1006,16.7,1006,12.5,1005.1z M13.8,1019.5c-1.4,1-2.7,3.3-2.9,5.2c-0.1,1,0.1,1.9,0.6,2.7c0.5,0.7,1.4,1.4,3.1,1.8l15.7-0.1
		c2.7-0.6,4.1-1.6,4.8-2.5c0.7-0.9,0.8-1.9,0.5-3c-0.3-1.1-1-2.3-1.9-3c-0.7-0.6-1.5-0.9-1.9-0.9c-0.2,0-0.4,0-0.5,0L13.8,1019.5
		L13.8,1019.5z M30.5,1033.2c-0.1,0-0.1,0-0.2,0l-14.8,0.1c-1.4,2.5-1.8,4.3-1.7,5.4c0.1,1.2,0.6,1.8,2.1,2.5
		c2.6,1.2,8,1.4,14.1,0.7c1-0.2,1.7-0.7,2.3-1.3c0.8-0.8,1.2-2,1.3-3.2c0.1-1.2-0.2-2.3-0.8-3.1
		C32.3,1033.6,31.7,1033.2,30.5,1033.2L30.5,1033.2z"/>
</g>
</svg>
