<?xml version="1.0" encoding="utf-8"?>
<!-- Generator: Adobe Illustrator 20.0.0, SVG Export Plug-In . SVG Version: 6.00 Build 0)  -->
<svg version="1.1" id="Calque_1" xmlns="http://www.w3.org/2000/svg" xmlns:xlink="http://www.w3.org/1999/xlink" x="0px" y="0px"
	 viewBox="0 0 24 30" style="enable-background:new 0 0 24 30;" xml:space="preserve">
<g>
	<g>
		<path d="M11.2,20.7c-4.8,0-8.7-3.9-8.7-8.7s3.9-8.7,8.7-8.7s8.7,3.9,8.7,8.7S16,20.7,11.2,20.7z M11.2,4.6c-4.1,0-7.4,3.3-7.4,7.4
			s3.3,7.4,7.4,7.4s7.4-3.3,7.4-7.4S15.3,4.6,11.2,4.6z"/>
	</g>
	<g>
		<path d="M16,23.9H6.4c-0.4,0-0.7-0.3-0.7-0.6v-4.8c0-0.4,0.3-0.6,0.7-0.6S7,18,7,18.4v4.2h8.3v-4.2c0-0.4,0.3-0.6,0.6-0.6
			s0.6,0.3,0.6,0.6v4.8C16.7,23.6,16.4,23.9,16,23.9z"/>
	</g>
	<g>
		<path d="M16,6.2c-0.4,0-0.6-0.3-0.6-0.7V1.4H7v4.2C7,6,6.8,6.2,6.4,6.2S5.7,6,5.7,5.6V0.8c0-0.4,0.3-0.6,0.7-0.6H16
			c0.4,0,0.6,0.3,0.6,0.6v4.8C16.7,6,16.4,6.2,16,6.2z"/>
	</g>
	<g>
		<path d="M11.2,12.6c-0.1,0-0.1,0-0.2,0l-4.8-1.5c-0.3-0.1-0.5-0.5-0.4-0.8C5.9,10,6.2,9.8,6.6,9.9l4.5,1.4L14,9.6
			c0.3-0.2,0.7-0.1,0.9,0.2c0.2,0.3,0.1,0.7-0.2,0.9l-3.1,1.8C11.4,12.6,11.3,12.6,11.2,12.6z"/>
	</g>
	<g>
		<path d="M20.8,13.5c-0.4,0-0.6-0.3-0.6-0.6v-1.7c0-0.4,0.3-0.6,0.6-0.6s0.6,0.3,0.6,0.6v1.7C21.5,13.2,21.2,13.5,20.8,13.5z"/>
	</g>
</g>
</svg>
