<?xml version="1.0" encoding="utf-8"?>
<!-- Generator: Adobe Illustrator 20.0.0, SVG Export Plug-In . SVG Version: 6.00 Build 0)  -->
<svg version="1.1" id="Calque_1" xmlns="http://www.w3.org/2000/svg" xmlns:xlink="http://www.w3.org/1999/xlink" x="0px" y="0px"
	 viewBox="0 0 120 150" style="enable-background:new 0 0 120 150;" xml:space="preserve">
<g>
	<path d="M102.2,59.2L62.6,24.1L60,21.8l-2.6,2.3L50,30.6v-0.2H34.4v14L17.8,59.2L10,66.1h15.1v32.1h69.8V66.1H110L102.2,59.2z
		 M90.9,62.1v32.1H29.1V62.1h-8.6l18-15.9V34.4h7.7v5.1L60,27.1l39.6,35.1L90.9,62.1L90.9,62.1z"/>
	<path d="M49.9,84.4c-0.4,0-0.8-0.2-1.1-0.5c-0.5-0.6-0.5-1.6,0.1-2.1c1.7-1.5,2.7-3.5,2.7-5.6s-0.9-4.1-2.6-5.7
		c-2.4-2.1-3.6-4.9-3.6-7.9s1.4-5.8,3.7-7.8c0.6-0.5,1.6-0.5,2.1,0.1s0.5,1.6-0.1,2.1c-1.7,1.5-2.7,3.5-2.7,5.6
		c0,2.1,0.9,4.1,2.6,5.7c2.4,2.1,3.6,4.9,3.6,7.9S53.2,82,50.9,84C50.6,84.3,50.2,84.4,49.9,84.4z"/>
	<path d="M59.4,84.5c-0.4,0-0.8-0.2-1.1-0.5c-0.5-0.6-0.5-1.6,0.1-2.1c1.7-1.5,2.7-3.5,2.7-5.6s-0.9-4.1-2.6-5.7
		c-2.4-2.1-3.6-4.9-3.6-7.9s1.4-5.8,3.7-7.8c0.6-0.5,1.6-0.5,2.1,0.1s0.5,1.6-0.1,2.1c-1.7,1.5-2.7,3.5-2.7,5.6
		c0,2.1,0.9,4.1,2.6,5.7c2.4,2.1,3.6,4.9,3.6,7.9s-1.4,5.8-3.7,7.8C60.1,84.4,59.7,84.5,59.4,84.5z"/>
	<path d="M69.9,84.6c-0.4,0-0.8-0.2-1.1-0.5c-0.5-0.6-0.5-1.6,0.1-2.1c1.7-1.5,2.7-3.5,2.7-5.6s-0.9-4.1-2.6-5.7
		c-2.4-2.1-3.6-4.9-3.6-7.9s1.4-5.8,3.7-7.8c0.6-0.5,1.6-0.5,2.1,0.1s0.5,1.6-0.1,2.1c-1.7,1.5-2.7,3.5-2.7,5.6
		c0,2.1,0.9,4.1,2.6,5.7c2.4,2.1,3.6,4.9,3.6,7.9s-1.4,5.8-3.7,7.8C70.6,84.5,70.3,84.6,69.9,84.6z"/>
</g>
</svg>
