<?xml version="1.0" encoding="utf-8"?>
<!-- Generator: Adobe Illustrator 20.0.0, SVG Export Plug-In . SVG Version: 6.00 Build 0)  -->
<svg version="1.1" id="Calque_1" xmlns="http://www.w3.org/2000/svg" xmlns:xlink="http://www.w3.org/1999/xlink" x="0px" y="0px"
	 viewBox="0 0 100 125" style="enable-background:new 0 0 100 125;" xml:space="preserve">
<path d="M87.1,22.3H12.9c-4.3,0-7.9,3.5-7.9,7.9v19.6c0,4.3,3.5,7.9,7.9,7.9h74.3c4.3,0,7.9-3.5,7.9-7.9V30.2
	C95,25.9,91.5,22.3,87.1,22.3z M82.4,23.8c-0.4,6.6-5.8,11.8-12.5,11.8H27.6c-6.7,0-12.1-5.2-12.5-11.8H82.4z M93.6,49.7
	c0,3.5-2.9,6.4-6.4,6.4H12.9c-3.5,0-6.4-2.9-6.4-6.4V30.2c0-3.5,2.9-6.4,6.4-6.4h0.8C14,31.1,20.1,37,27.6,37h42.3
	c7.5,0,13.6-5.9,13.9-13.3h3.4c3.5,0,6.4,2.9,6.4,6.4C93.6,30.1,93.6,49.7,93.6,49.7z M83.8,46c0,0.4-0.3,0.7-0.7,0.7H14.3
	c-0.4,0-0.7-0.3-0.7-0.7s0.3-0.7,0.7-0.7h68.8C83.5,45.2,83.8,45.6,83.8,46z M47.1,68.6c0,0.4-0.3,0.7-0.7,0.7h-3.6l2.6,2.6
	c0.3,0.3,0.3,0.7,0,1C45.2,73,45,73,44.9,73c-0.2,0-0.4-0.1-0.5-0.2l-2.6-2.6v3.6c0,0.4-0.3,0.7-0.7,0.7s-0.7-0.3-0.7-0.7v-3.6
	l-2.6,2.6C37.6,73,37.5,73,37.3,73s-0.4-0.1-0.5-0.2c-0.3-0.3-0.3-0.7,0-1l2.6-2.6h-3.6c-0.4,0-0.7-0.3-0.7-0.7
	c0-0.4,0.3-0.7,0.7-0.7h3.6l-2.6-2.6c-0.3-0.3-0.3-0.7,0-1c0.3-0.3,0.7-0.3,1,0l2.6,2.6v-3.6c0-0.4,0.3-0.7,0.7-0.7s0.7,0.3,0.7,0.7
	v3.6l2.6-2.6c0.3-0.3,0.7-0.3,1,0c0.3,0.3,0.3,0.7,0,1l-2.6,2.6h3.6C46.8,67.8,47.1,68.2,47.1,68.6z M62.4,73.1
	c0,0.4-0.3,0.7-0.7,0.7h-2.1l1.5,1.5c0.3,0.3,0.3,0.7,0,1c-0.1,0.1-0.3,0.2-0.5,0.2s-0.4-0.1-0.5-0.2l-1.5-1.5V77
	c0,0.4-0.3,0.7-0.7,0.7s-0.7-0.3-0.7-0.7v-2.1l-1.5,1.5c-0.1,0.1-0.3,0.2-0.5,0.2s-0.4-0.1-0.5-0.2c-0.3-0.3-0.3-0.7,0-1l1.5-1.5
	h-2.1c-0.4,0-0.7-0.3-0.7-0.7c0-0.4,0.3-0.7,0.7-0.7h2.1L54.7,71c-0.3-0.3-0.3-0.7,0-1s0.7-0.3,1,0l1.5,1.5v-2.1
	c0-0.4,0.3-0.7,0.7-0.7s0.7,0.3,0.7,0.7v2.1l1.5-1.5c0.3-0.3,0.7-0.3,1,0s0.3,0.7,0,1l-1.5,1.5h2.1C62.1,72.4,62.4,72.7,62.4,73.1z"
	/>
</svg>
