<?xml version="1.0" encoding="utf-8"?>
<!-- Generator: Adobe Illustrator 20.0.0, SVG Export Plug-In . SVG Version: 6.00 Build 0)  -->
<svg version="1.1" id="Calque_1" xmlns="http://www.w3.org/2000/svg" xmlns:xlink="http://www.w3.org/1999/xlink" x="0px" y="0px"
	 viewBox="0 0 100 125" style="enable-background:new 0 0 100 125;" xml:space="preserve">
<title>Artboard 12</title>
<path d="M52.4,35.8c-1.4,0-2.5-1.1-2.5-2.5v-4.7c0-1.4,1.1-2.5,2.5-2.5s2.5,1.1,2.5,2.5v4.7C54.9,34.6,53.8,35.8,52.4,35.8
	C52.4,35.8,52.4,35.8,52.4,35.8z M49.9,80.7v4.7c0,1.4,1.1,2.5,2.5,2.5s2.5-1.1,2.5-2.5v-4.7c0-1.4-1.1-2.5-2.5-2.5
	S49.9,79.3,49.9,80.7L49.9,80.7z M80.8,59.5c1.4,0,2.5-1.1,2.5-2.5s-1.1-2.5-2.5-2.5h-4.7c-1.4,0-2.5,1.1-2.5,2.5s1.1,2.5,2.5,2.5
	H80.8z M70.9,72c-1-1-2.6-1-3.5,0s-1,2.6,0,3.5l3.3,3.3c1,1,2.6,1,3.5,0s1-2.6,0-3.5L70.9,72z M52.4,48.4c1.4,0,2.8,0.3,4,1l13-13
	c1-1,2.6-1,3.5,0c1,1,1,2.6,0,3.5l-13,13c2.2,4.2,0.7,9.4-3.5,11.6c-4.2,2.2-9.4,0.7-11.6-3.5s-0.7-9.4,3.5-11.6
	C49.6,48.7,51,48.3,52.4,48.4L52.4,48.4z M48.8,57c0,2,1.6,3.6,3.6,3.6S56,59,56,57c0-2-1.6-3.6-3.6-3.6c0,0,0,0,0,0
	C50.4,53.4,48.8,55,48.8,57z M91.2,26.8c1,1,2.6,1,3.5,0c1-1,1-2.6,0-3.5l0,0L86,14.6c-1.1-0.9-2.7-0.7-3.5,0.4
	c-0.7,0.9-0.7,2.2,0,3.1l2.6,2.6l-5.2,5.2c-6.9-6.2-15.7-9.8-25-10.4v-9h8.7c1.4,0,2.5-1.1,2.5-2.5s-1.1-2.5-2.5-2.5H41.2
	c-1.4,0-2.5,1.1-2.5,2.5s1.1,2.5,2.5,2.5h8.7v9C39.7,16.1,30.2,20.4,23,27.6c-1,1-1,2.6,0,3.5c1,1,2.6,1,3.5,0l0,0
	c14.3-14.3,37.4-14.3,51.7,0s14.3,37.4,0,51.7c-14.3,14.3-37.4,14.3-51.7,0c-1-0.9-2.6-0.8-3.5,0.2c-0.9,0.9-0.9,2.4,0,3.3
	c16.3,16.2,42.6,16,58.7-0.3c15.4-15.5,16.1-40.3,1.7-56.7l5.2-5.2L91.2,26.8z M4.5,41.2c0,1.4,1.1,2.5,2.5,2.5h22.6
	c1.4,0,2.5-1.1,2.5-2.5s-1.1-2.5-2.5-2.5H7C5.6,38.7,4.5,39.8,4.5,41.2z M10.2,57c0,1.4,1.1,2.5,2.5,2.5h22.6c1.4,0,2.5-1.1,2.5-2.5
	s-1.1-2.5-2.5-2.5H12.7C11.4,54.5,10.2,55.6,10.2,57z M7,75.2h22.6c1.4,0,2.5-1.1,2.5-2.5s-1.1-2.5-2.5-2.5H7
	c-1.4,0-2.5,1.1-2.5,2.5S5.6,75.2,7,75.2z"/>
</svg>
