<?xml version="1.0" encoding="utf-8"?>
<!-- Generator: Adobe Illustrator 20.0.0, SVG Export Plug-In . SVG Version: 6.00 Build 0)  -->
<svg version="1.1" id="Calque_1" xmlns="http://www.w3.org/2000/svg" xmlns:xlink="http://www.w3.org/1999/xlink" x="0px" y="0px"
	 viewBox="0 0 100 125" style="enable-background:new 0 0 100 125;" xml:space="preserve">
<path d="M85.3,32.9h-7v-1.1c0-0.6-0.4-1-1-1h-7.8c-0.6,0-1,0.4-1,1v1.1h-3.7V29c0-0.6-0.4-1-1-1h-2.9v-4.5h9.7
	c2.7,0,4.8-2.2,4.8-4.8s-2.2-4.8-4.8-4.8H61v-1.4c0-2.1-1.7-3.9-3.9-3.9s-3.9,1.7-3.9,3.9v1.4H44c-2.7,0-4.8,2.2-4.8,4.8
	s2.2,4.8,4.8,4.8h9.3V28h-2.8c-0.6,0-1,0.4-1,1v4.2c-18.8,2.4-32.9,18.4-32.9,37.4v8.1H15c-0.6,0-1,0.4-1,1v7.8c0,0.6,0.4,1,1,1
	h27.2c0.6,0,1-0.4,1-1v-7.8c0-0.6-0.4-1-1-1h-1.5V71c0-8.4,6.8-15.3,15.3-15.3h12.6v1.4c0,0.6,0.4,1,1,1h7.8c0.6,0,1-0.4,1-1v-1.4h7
	c0.6,0,1-0.4,1-1V33.9C86.3,33.3,85.8,32.9,85.3,32.9z M55.3,12.5c0-1,0.8-1.9,1.9-1.9s1.9,0.8,1.9,1.9v1.4h-3.7v-1.4H55.3z
	 M41.2,18.7c0-1.5,1.3-2.8,2.8-2.8h26.6c1.5,0,2.8,1.3,2.8,2.8s-1.3,2.8-2.8,2.8H44C42.4,21.5,41.2,20.2,41.2,18.7z M55.3,23.5h3.6
	V28h-3.6V23.5z M41.1,86.5H16v-5.8h25.2v5.8H41.1z M55.9,53.8c-9.5,0-17.3,7.7-17.3,17.3v7.7H18.5v-8.1c0-17.9,13.3-33,30.9-35.4
	v1.6c0,0.6,0.4,1,1,1s1-0.4,1-1V30h11.3v6.9c0,0.6,0.4,1,1,1c0.6,0,1-0.4,1-1v-2h3.7v18.9C68.4,53.8,55.9,53.8,55.9,53.8z
	 M76.3,56.2h-5.8V32.8h5.8V56.2z M78.3,34.9h2v18.9h-2V34.9z M84.3,53.8h-2V34.9h2V53.8z"/>
</svg>
