<?xml version="1.0" encoding="utf-8"?>
<!-- Generator: Adobe Illustrator 20.0.0, SVG Export Plug-In . SVG Version: 6.00 Build 0)  -->
<svg version="1.1"
	 id="Calque_1" xmlns:cc="http://creativecommons.org/ns#" xmlns:dc="http://purl.org/dc/elements/1.1/" xmlns:inkscape="http://www.inkscape.org/namespaces/inkscape" xmlns:rdf="http://www.w3.org/1999/02/22-rdf-syntax-ns#" xmlns:sodipodi="http://sodipodi.sourceforge.net/DTD/sodipodi-0.dtd" xmlns:svg="http://www.w3.org/2000/svg"
	 xmlns="http://www.w3.org/2000/svg" xmlns:xlink="http://www.w3.org/1999/xlink" x="0px" y="0px" viewBox="0 0 100 125"
	 style="enable-background:new 0 0 100 125;" xml:space="preserve">
<g transform="translate(0,-952.36218)">
	<path d="M49.8,958.4c-0.1,0-0.2,0.1-0.3,0.2l-5.3,3.6l-6.2-1.3c-0.4-0.1-0.8,0.1-1,0.4l-3.5,5.3l-6.2,1.2c-0.4,0.1-0.7,0.4-0.8,0.8
		l-1.2,6.2l-5.3,3.5c-0.3,0.2-0.5,0.6-0.4,1l1.3,6.2l-3.6,5.3c-0.2,0.3-0.2,0.8,0,1.1l3.6,5.2l-1.3,6.2c-0.1,0.4,0.1,0.8,0.4,1
		l3.6,2.4l-17.3,27c-0.3,0.5-0.2,1.1,0.3,1.4c0.2,0.1,0.5,0.2,0.7,0.1l14.1-2.8l3.8,13.1c0.2,0.5,0.7,0.8,1.2,0.7
		c0.2-0.1,0.4-0.2,0.6-0.4l14.8-24.8l2.5-0.5l5.3,3.6c0.2,0.1,0.4,0.2,0.6,0.2c0.2,0,0.4-0.1,0.6-0.2l5.3-3.6l2.5,0.5l14.8,24.8
		c0.3,0.5,0.9,0.6,1.4,0.3c0.2-0.1,0.4-0.3,0.4-0.6l3.8-13.1l14.1,2.8c0.5,0.1,1.1-0.2,1.2-0.8c0.1-0.3,0-0.5-0.1-0.7l-17.4-27
		l3.6-2.4c0.3-0.2,0.5-0.6,0.4-1l-1.3-6.2l3.6-5.2c0.2-0.3,0.2-0.8,0-1.1l-3.6-5.3l1.3-6.2c0.1-0.4-0.1-0.8-0.4-1l-5.3-3.5l-1.2-6.2
		c-0.1-0.4-0.4-0.7-0.8-0.8l-6.2-1.2l-3.5-5.3c-0.2-0.3-0.6-0.5-1-0.4l-6.2,1.3l-5.3-3.6C50.3,958.4,50.1,958.3,49.8,958.4z
		 M50,960.6l5,3.4c0.2,0.2,0.5,0.2,0.8,0.2l5.9-1.2l3.3,5.1c0.1,0.2,0.4,0.4,0.7,0.4l6,1.1l1.1,6c0,0.3,0.2,0.5,0.4,0.7l5.1,3.3
		l-1.2,6c-0.1,0.3,0,0.6,0.2,0.8l3.4,5l-3.4,5c-0.2,0.2-0.2,0.5-0.2,0.8l1.2,6l-5.1,3.3c-0.2,0.1-0.4,0.4-0.4,0.7l-1.1,6l-6,1.1
		c-0.3,0-0.5,0.2-0.7,0.4l-3.3,5.1l-5.9-1.2c-0.3-0.1-0.6,0-0.8,0.2l-5,3.4l-5-3.4c-0.2-0.2-0.5-0.2-0.8-0.2l-6,1.2l-3.3-5.1
		c-0.1-0.2-0.4-0.4-0.7-0.4l-6-1.1l-1.1-6c0-0.3-0.2-0.5-0.4-0.7l-5.1-3.3l1.2-6c0.1-0.3,0-0.6-0.2-0.8l-3.4-5l3.4-5
		c0.2-0.2,0.2-0.5,0.2-0.8l-1.2-6l5.1-3.3c0.2-0.1,0.4-0.4,0.4-0.7l1.1-6l6-1.1c0.3,0,0.5-0.2,0.7-0.4l3.3-5.1l6,1.2
		c0.3,0.1,0.6,0,0.8-0.2L50,960.6z M50,968.4c-12.7,0-23,10.3-23,23c0,12.7,10.3,23,23,23c12.7,0,23-10.3,23-23S62.7,968.4,50,968.4
		L50,968.4z M50,970.4c11.6,0,21,9.4,21,21c0,11.6-9.4,21-21,21c-11.6,0-21-9.4-21-21S38.4,970.4,50,970.4L50,970.4z M60.4,981.4
		l-13,13.9l-6.8-6.1l-4,4.5l9,8l2.2,1.9l2-2.1l15-16L60.4,981.4z M25.2,1007.9L25.2,1007.9l1.2,6.2c0.1,0.4,0.4,0.7,0.8,0.8l6.2,1.2
		l3.5,5.3c0.2,0.3,0.6,0.5,1,0.4l1.1-0.2l-12.7,21.2l-3.4-11.8c-0.1-0.5-0.6-0.8-1.2-0.7l-12.7,2.5L25.2,1007.9L25.2,1007.9z
		 M74.8,1007.9l16.1,25l-12.7-2.5c-0.5-0.1-1,0.2-1.2,0.7l-3.4,11.8l-12.7-21.2l1.1,0.2c0.4,0.1,0.8-0.1,1-0.4l3.5-5.3l6.2-1.2
		c0.4-0.1,0.7-0.4,0.8-0.8L74.8,1007.9L74.8,1007.9L74.8,1007.9z"/>
</g>
</svg>
