<?xml version="1.0" encoding="utf-8"?>
<!-- Generator: Adobe Illustrator 20.0.0, SVG Export Plug-In . SVG Version: 6.00 Build 0)  -->
<svg version="1.1" id="Calque_1" xmlns="http://www.w3.org/2000/svg" xmlns:xlink="http://www.w3.org/1999/xlink" x="0px" y="0px"
	 viewBox="0 0 100 125" style="enable-background:new 0 0 100 125;" xml:space="preserve">
<path d="M76.7,22.9c0-2.2,0.3-4.3,0.8-6.3c0.4-1.6,0.1-3.3-0.9-4.5c-1-1.3-2.4-2-4-2h-6.3l0,0l0,0c0,0,0,0-0.1,0s-0.2,0-0.3,0.1l0,0
	l0,0c-19.2,8-31.4,0.2-31.5,0.1h-0.1c-0.1,0-0.1-0.1-0.2-0.1c-0.1,0-0.1,0-0.2,0h-0.1h-6.3c-1.6,0-3.1,0.7-4,2c-1,1.3-1.3,3-0.9,4.5
	c0.5,2,0.8,4.1,0.8,6.3c0,5-1.5,9.8-4.2,13.2C17.8,38,17,40.4,17,42.9v41.7c0,3.3,2.7,6,6,6h19c3,0,5.4-2.2,5.9-5h4.4
	c0.5,2.8,2.9,5,5.9,5h19c3.3,0,6-2.7,6-6V42.8c0-2.5-0.8-4.9-2.2-6.7C78.2,32.8,76.7,28,76.7,22.9z M48.9,15.8
	c4.6,0,10.1-0.9,16.4-3.3C65,17.7,61.6,24.6,56.5,27c-2.7,1.3-4.4,4-4.4,7.1V45H48V34.1c0-3.1-1.7-5.9-4.4-7.1
	c-5-2.3-8.4-9-8.8-14.2C37.1,13.9,42,15.8,48.9,15.8z M64.8,46.3c0-0.9,0.3-1.8,0.8-2.5v2.1c0,1.4,1.1,2.5,2.5,2.5H70
	c1.4,0,2.5-1.1,2.5-2.5v-2.1c0.5,0.7,0.8,1.6,0.8,2.5c0,1.9-1.3,3.5-3,4h-2.4C66.1,49.8,64.8,48.1,64.8,46.3z M81.1,63.3h-9.4
	l-0.5-11h9.9V63.3z M68.9,52.3h0.3l1,21.2c0,0.6-0.5,1.2-1.2,1.2s-1.2-0.5-1.2-1.1L68.9,52.3z M66.9,52.3l-0.5,11H54.1v-4.1h3.5
	c0.6,0,1-0.4,1-1s-0.4-1-1-1h-3.5v-4.9H66.9z M52.1,83.5H48V71.4h4.2v12.1H52.1z M48,69.4V59.2h4.2v10.2H48z M19,52.3h27v4.9h-5.3
	c-0.6,0-1,0.4-1,1s0.4,1,1,1H46v4.1H19V52.3z M52.1,57.2H48V47h4.2v10.2H52.1z M20.8,37.4c2.9-3.7,4.6-9,4.6-14.4
	c0-2.4-0.3-4.7-0.9-6.8c-0.3-1-0.1-2,0.5-2.8s1.5-1.2,2.5-1.2h5.3c0.1,5.9,3.9,13.9,9.9,16.7c2,0.9,3.2,3,3.2,5.3V45h-5.3
	c-0.6,0-1,0.4-1,1s0.4,1,1,1H46v3.3H19v-7.5C19,40.8,19.6,38.8,20.8,37.4z M41.9,88.5H23c-2.2,0-4-1.8-4-4V65.3h27v4.1h-5.3
	c-0.6,0-1,0.4-1,1s0.4,1,1,1H46v13.1C46,86.7,44.2,88.5,41.9,88.5z M77.1,88.5h-19c-2.2,0-4-1.8-4-4V71.4h3.5c0.6,0,1-0.4,1-1
	s-0.4-1-1-1h-3.5v-4.1h12.1l-0.4,8.2c0,1.7,1.4,3.2,3.2,3.2s3.2-1.4,3.2-3.2l-0.4-8.1h9.3v19.2C81.1,86.7,79.3,88.5,77.1,88.5z
	 M81.1,50.3h-7.4c0.9-1.1,1.5-2.5,1.5-4c0-2.3-1.3-4.4-3.4-5.5c-0.3-0.2-0.7-0.1-1,0c-0.3,0.2-0.5,0.5-0.5,0.9v4.2
	c0,0.3-0.2,0.5-0.5,0.5H68c-0.3,0-0.5-0.2-0.5-0.5v-4.2c0-0.3-0.2-0.7-0.5-0.9s-0.7-0.2-1,0c-2.1,1.1-3.4,3.2-3.4,5.5
	c0,1.5,0.6,2.9,1.5,4h-10V47h3.5c0.6,0,1-0.4,1-1s-0.4-1-1-1h-3.5V34.1c0-2.3,1.3-4.4,3.2-5.3c6.1-2.9,9.9-10.9,9.9-16.7h5.3
	c1,0,1.9,0.4,2.5,1.2s0.8,1.8,0.5,2.8c-0.6,2.2-0.9,4.5-0.9,6.8c0,5.5,1.7,10.7,4.6,14.4c1.2,1.5,1.8,3.4,1.8,5.5L81.1,50.3
	L81.1,50.3z"/>
</svg>
