<?xml version="1.0" encoding="iso-8859-1"?>
<!-- Generator: Adobe Illustrator 19.0.0, SVG Export Plug-In . SVG Version: 6.00 Build 0)  -->
<svg version="1.1" id="Capa_1" xmlns="http://www.w3.org/2000/svg" xmlns:xlink="http://www.w3.org/1999/xlink" x="0px" y="0px"
	 viewBox="0 0 512 512" style="enable-background:new 0 0 512 512;" xml:space="preserve">
<g>
	<g>
		<path d="M497,16h-60c-8.284,0-15,6.716-15,15s6.716,15,15,15h28.831L286.025,224.954l-79.418-79.419
			c-5.846-5.846-15.321-5.859-21.184-0.029l-181,180c-5.874,5.842-5.9,15.339-0.059,21.213c5.84,5.873,15.338,5.902,21.213,0.059
			l170.394-169.452l79.423,79.423c5.848,5.848,15.326,5.859,21.188,0.025L482,72.234V91c0,8.284,6.716,15,15,15s15-6.716,15-15V31
			C512,22.716,505.284,16,497,16z"/>
	</g>
</g>
<g>
	<g>
		<path d="M456.423,140.364L286.029,309.816l-79.423-79.423c-5.846-5.846-15.321-5.859-21.184-0.029l-181,180
			C1.592,413.179,0,417.007,0,421v60c0,8.284,6.716,15,15,15h452c8.284,0,15-6.716,15-15V151
			C482,137.685,465.861,130.978,456.423,140.364z M91,466H30v-38.762l61-60.663V466z M181,466h-60V336.74l60-59.669V466z M271,466
			h-60V277.213l60,60V466z M361,466h-60V337.238l60-59.669V466z M452,466h-61V247.735l61-60.663V466z"/>
	</g>
</g>
<g>
</g>
<g>
</g>
<g>
</g>
<g>
</g>
<g>
</g>
<g>
</g>
<g>
</g>
<g>
</g>
<g>
</g>
<g>
</g>
<g>
</g>
<g>
</g>
<g>
</g>
<g>
</g>
<g>
</g>
</svg>
